<svg width="454" height="209" viewBox="0 0 454 209" fill="none" xmlns="http://www.w3.org/2000/svg">
<g clip-path="url(#clip0_250_917)">
<path d="M131.066 193.096C147.483 193.096 160.792 179.787 160.792 163.37C160.792 146.952 147.483 133.644 131.066 133.644C114.648 133.644 101.339 146.952 101.339 163.37C101.339 179.787 114.648 193.096 131.066 193.096Z" fill="#ECECEC"/>
<path d="M107.419 205.381C127.941 205.381 144.577 188.745 144.577 168.223C144.577 147.702 127.941 131.066 107.419 131.066C86.8978 131.066 70.2617 147.702 70.2617 168.223C70.2617 188.745 86.8978 205.381 107.419 205.381Z" fill="#ECECEC"/>
<path d="M73.6401 199.976C87.4456 199.976 98.6371 188.785 98.6371 174.979C98.6371 161.174 87.4456 149.982 73.6401 149.982C59.8346 149.982 48.6431 161.174 48.6431 174.979C48.6431 188.785 59.8346 199.976 73.6401 199.976Z" fill="#ECECEC"/>
<path d="M33.1042 233.756C51.3871 233.756 66.2083 218.935 66.2083 200.652C66.2083 182.369 51.3871 167.548 33.1042 167.548C14.8212 167.548 0 182.369 0 200.652C0 218.935 14.8212 233.756 33.1042 233.756Z" fill="#ECECEC"/>
<path d="M109.887 247.079C138.06 247.079 160.898 224.246 160.898 196.079C160.898 167.912 138.06 145.078 109.887 145.078C81.7145 145.078 58.876 167.912 58.876 196.079C58.876 224.246 81.7145 247.079 109.887 247.079Z" fill="#ECECEC"/>
<path fill-rule="evenodd" clip-rule="evenodd" d="M224.085 86.3518C224.085 157.54 132.689 186.228 132.689 186.228H323.982C323.982 186.228 229.398 161.79 229.398 86.3518" fill="white"/>
<path d="M174.667 271.228C211.937 271.228 242.151 241.021 242.151 203.759C242.151 166.497 211.937 136.29 174.667 136.29C137.397 136.29 107.184 166.497 107.184 203.759C107.184 241.021 137.397 271.228 174.667 271.228Z" fill="#F9F9F9"/>
<path d="M100.094 289.216C134.48 289.216 162.355 261.347 162.355 226.969C162.355 192.59 134.48 164.721 100.094 164.721C65.7082 164.721 37.833 192.59 37.833 226.969C37.833 261.347 65.7082 289.216 100.094 289.216Z" fill="#FAFAFA"/>
<path d="M82.5286 293.27C116.914 293.27 144.79 265.401 144.79 231.022C144.79 196.644 116.914 168.774 82.5286 168.774C48.1428 168.774 20.2676 196.644 20.2676 231.022C20.2676 265.401 48.1428 293.27 82.5286 293.27Z" fill="#ECECEC"/>
<path d="M89.2845 293.27C123.67 293.27 151.546 265.401 151.546 231.022C151.546 196.644 123.67 168.774 89.2845 168.774C54.8987 168.774 27.0234 196.644 27.0234 231.022C27.0234 265.401 54.8987 293.27 89.2845 293.27Z" fill="#F9F9F9"/>
<path d="M295.819 251.041C333.089 251.041 363.303 220.834 363.303 183.571C363.303 146.309 333.089 116.102 295.819 116.102C258.549 116.102 228.335 146.309 228.335 183.571C228.335 220.834 258.549 251.041 295.819 251.041Z" fill="#EDEDED"/>
<path d="M267.126 271.228C304.396 271.228 334.609 241.021 334.609 203.759C334.609 166.497 304.396 136.29 267.126 136.29C229.856 136.29 199.642 166.497 199.642 203.759C199.642 241.021 229.856 271.228 267.126 271.228Z" fill="#F9F9F9"/>
<path d="M364.897 264.853C402.167 264.853 432.381 234.646 432.381 197.384C432.381 160.122 402.167 129.915 364.897 129.915C327.627 129.915 297.414 160.122 297.414 197.384C297.414 234.646 327.627 264.853 364.897 264.853Z" fill="#EDEDED"/>
<path d="M336.734 183.04C359.037 183.04 377.118 164.963 377.118 142.665C377.118 120.366 359.037 102.289 336.734 102.289C314.431 102.289 296.35 120.366 296.35 142.665C296.35 164.963 314.431 183.04 336.734 183.04Z" fill="#EDEDED"/>
<path d="M289.443 275.478C326.713 275.478 356.926 245.271 356.926 208.009C356.926 170.747 326.713 140.54 289.443 140.54C252.172 140.54 221.959 170.747 221.959 208.009C221.959 245.271 252.172 275.478 289.443 275.478Z" fill="#F9F9F9"/>
<path d="M348.425 194.728C364.272 194.728 377.119 181.884 377.119 166.04C377.119 150.196 364.272 137.352 348.425 137.352C332.578 137.352 319.731 150.196 319.731 166.04C319.731 181.884 332.578 194.728 348.425 194.728Z" fill="#F9F9F9"/>
<path d="M402.893 257.953C430.627 257.953 453.11 235.475 453.11 207.746C453.11 180.018 430.627 157.54 402.893 157.54C375.159 157.54 352.676 180.018 352.676 207.746C352.676 235.475 375.159 257.953 402.893 257.953Z" fill="#F9F9F9"/>
<path d="M305.916 205.353C328.219 205.353 346.3 187.276 346.3 164.977C346.3 142.679 328.219 124.602 305.916 124.602C283.612 124.602 265.532 142.679 265.532 164.977C265.532 187.276 283.612 205.353 305.916 205.353Z" fill="#F9F9F9"/>
<path d="M110.084 225.252C132.387 225.252 150.468 207.175 150.468 184.876C150.468 162.578 132.387 144.501 110.084 144.501C87.7807 144.501 69.7002 162.578 69.7002 184.876C69.7002 207.175 87.7807 225.252 110.084 225.252Z" fill="#F9F9F9"/>
<mask id="mask0_250_917" style="mask-type:alpha" maskUnits="userSpaceOnUse" x="132" y="86" width="192" height="101">
<path d="M224.084 86.3517C224.084 157.54 132.689 186.227 132.689 186.227H323.981C323.981 186.227 229.398 161.79 229.398 86.3517" fill="white"/>
</mask>
<g mask="url(#mask0_250_917)">
<path d="M224.084 86.3517C224.084 157.54 132.689 186.227 132.689 186.227H323.981C323.981 186.227 229.398 161.79 229.398 86.3517" fill="#ECECEC"/>
<path fill-rule="evenodd" clip-rule="evenodd" d="M227.272 95.2689C227.272 95.2689 234.762 152.241 249.59 157.109C264.417 161.978 320.793 194.447 320.793 194.447H135.877L225.147 90.6017L227.272 95.2689Z" fill="#F9F9F9"/>
<path d="M234.18 175.602C244.451 175.602 252.778 167.278 252.778 157.008C252.778 146.739 244.451 138.415 234.18 138.415C223.909 138.415 215.582 146.739 215.582 157.008C215.582 167.278 223.909 175.602 234.18 175.602Z" fill="#F9F9F9"/>
</g>
<path d="M141.989 202.827C153.58 202.827 162.978 193.403 162.978 181.777C162.978 170.152 153.58 160.728 141.989 160.728C130.397 160.728 121 170.152 121 181.777C121 193.403 130.397 202.827 141.989 202.827Z" fill="#ECECEC"/>
<path d="M162.978 213.853C174.57 213.853 183.967 204.429 183.967 192.803C183.967 181.178 174.57 171.754 162.978 171.754C151.386 171.754 141.989 181.178 141.989 192.803C141.989 204.429 151.386 213.853 162.978 213.853Z" fill="#ECECEC"/>
<path d="M183.967 213.853C195.558 213.853 204.956 204.429 204.956 192.803C204.956 181.178 195.558 171.754 183.967 171.754C172.375 171.754 162.978 181.178 162.978 192.803C162.978 204.429 172.375 213.853 183.967 213.853Z" fill="#ECECEC"/>
<path d="M139.066 206.415C151.392 206.415 161.383 196.426 161.383 184.103C161.383 171.78 151.392 161.79 139.066 161.79C126.74 161.79 116.749 171.78 116.749 184.103C116.749 196.426 126.74 206.415 139.066 206.415Z" fill="#F9F9F9"/>
<path d="M161.383 218.103C173.709 218.103 183.701 208.113 183.701 195.79C183.701 183.468 173.709 173.478 161.383 173.478C149.058 173.478 139.066 183.468 139.066 195.79C139.066 208.113 149.058 218.103 161.383 218.103Z" fill="#F9F9F9"/>
<path d="M183.701 218.103C196.026 218.103 206.018 208.113 206.018 195.79C206.018 183.468 196.026 173.478 183.701 173.478C171.375 173.478 161.383 183.468 161.383 195.79C161.383 208.113 171.375 218.103 183.701 218.103Z" fill="#F9F9F9"/>
<path fill-rule="evenodd" clip-rule="evenodd" d="M220.006 80.7228C220.006 80.7228 222.648 93.2899 226.612 101.227C226.612 101.227 232.558 88.6599 233.879 80.7228" fill="#FFA487"/>
<path fill-rule="evenodd" clip-rule="evenodd" d="M221.327 80.7228C221.327 80.7228 222.963 90.8576 225.417 97.2585C225.417 97.2585 229.097 87.1237 229.915 80.7228" fill="#F8E81C"/>
<path fill-rule="evenodd" clip-rule="evenodd" d="M223.97 80.7228C223.97 80.7228 225.606 88.8306 228.059 93.9514C228.059 93.9514 231.74 85.8435 232.558 80.7228" fill="#F8E81C"/>
<path fill-rule="evenodd" clip-rule="evenodd" d="M213.82 54.7006C213.82 54.7006 196.273 59.3396 205.631 84.8545C205.631 84.8545 211.48 73.2568 218.499 73.2568L213.82 54.7006Z" fill="#E6643B"/>
<path fill-rule="evenodd" clip-rule="evenodd" d="M240.726 54.7006C240.726 54.7006 258.273 59.3396 248.915 84.8545C248.915 84.8545 243.065 73.2568 236.046 73.2568L240.726 54.7006Z" fill="#E6643B"/>
<path d="M227.562 45.4223C232.1 45.4223 235.778 41.7754 235.778 37.2768C235.778 32.7781 232.1 29.1312 227.562 29.1312C223.024 29.1312 219.346 32.7781 219.346 37.2768C219.346 41.7754 223.024 45.4223 227.562 45.4223Z" fill="#FAFAFA" stroke="#EAEAEA" stroke-width="1.35119"/>
<path fill-rule="evenodd" clip-rule="evenodd" d="M233.657 32.4385L230.195 42.613H228.353L227.095 38.1001L225.821 42.613H223.979L221.327 37.0616H223.276L224.839 40.427L226.297 34.7657H227.877L229.413 40.1776L231.837 32.4385H233.657Z" fill="#4499DC"/>
<path fill-rule="evenodd" clip-rule="evenodd" d="M226.688 54.7006C226.688 54.7006 223.179 66.2982 226.688 86.0143C226.688 86.0143 231.368 61.6592 227.858 54.7006" fill="#E6643B"/>
<path fill-rule="evenodd" clip-rule="evenodd" d="M220.006 80.7228C220.006 80.7228 222.648 93.2899 226.612 101.227C226.612 101.227 232.558 88.6599 233.879 80.7228" fill="#FFA487"/>
<path fill-rule="evenodd" clip-rule="evenodd" d="M221.327 80.7228C221.327 80.7228 222.963 90.8576 225.417 97.2585C225.417 97.2585 229.097 87.1237 229.915 80.7228" fill="#F8E81C"/>
<path fill-rule="evenodd" clip-rule="evenodd" d="M223.97 80.7228C223.97 80.7228 225.606 88.8306 228.059 93.9514C228.059 93.9514 231.74 85.8435 232.558 80.7228" fill="#F8E81C"/>
<path fill-rule="evenodd" clip-rule="evenodd" d="M220.243 77.0179L217.329 81.3752H236.046L233.755 77.0179H220.243Z" fill="#5E3D3E"/>
<path fill-rule="evenodd" clip-rule="evenodd" d="M213.82 54.7006C213.82 54.7006 196.273 59.3396 205.631 84.8545C205.631 84.8545 211.48 73.2568 218.499 73.2568L213.82 54.7006Z" fill="#E6643B"/>
<path fill-rule="evenodd" clip-rule="evenodd" d="M240.726 54.7006C240.726 54.7006 258.273 59.3396 248.915 84.8545C248.915 84.8545 243.065 73.2568 236.046 73.2568L240.726 54.7006Z" fill="#E6643B"/>
<mask id="mask1_250_917" style="mask-type:alpha" maskUnits="userSpaceOnUse" x="212" y="18" width="31" height="60">
<path d="M218.893 77.8958H235.107C235.107 77.8958 236.664 74.2328 238.49 68.2292C241.888 57.0562 245.419 37.7769 237.809 18.9167C237.809 18.9167 226.9 22.396 217.542 18.9167C217.542 18.9167 206.732 40.5238 216.19 68.2292" fill="white"/>
</mask>
<g mask="url(#mask1_250_917)">
<path d="M218.893 77.8958H235.107C235.107 77.8958 236.664 74.2328 238.49 68.2292C241.888 57.0562 245.419 37.7769 237.809 18.9167C237.809 18.9167 226.9 22.396 217.542 18.9167C217.542 18.9167 206.732 40.5238 216.19 68.2292" fill="#E5E5E5"/>
<path fill-rule="evenodd" clip-rule="evenodd" d="M227 17.5655V85.1251H239.161L249.97 28.3751L239.161 13.512L227 17.5655Z" fill="#CACACA"/>
</g>
<path fill-rule="evenodd" clip-rule="evenodd" d="M217.542 18.9167C217.542 18.9167 223.672 2.31953 228.351 0C228.351 0 235.47 7.319 237.809 18.9167C237.809 18.9167 232.339 21.7581 227 21.619C221.661 21.48 217.542 18.9167 217.542 18.9167Z" fill="#E6643B"/>
<path d="M227.274 46.8786C232.556 46.8786 236.838 42.6332 236.838 37.3963C236.838 32.1593 232.556 27.9139 227.274 27.9139C221.991 27.9139 217.709 32.1593 217.709 37.3963C217.709 42.6332 221.991 46.8786 227.274 46.8786Z" fill="#FAFAFA" stroke="#EAEAEA" stroke-width="2.70238"/>
<path fill-rule="evenodd" clip-rule="evenodd" d="M233.657 32.4384L230.195 42.6129H228.353L227.095 38.0999L225.821 42.6129H223.979L221.327 37.0615H223.276L224.839 40.4269L226.297 34.7656H227.877L229.413 40.1775L231.837 32.4384H233.657Z" fill="#4499DC"/>
<path fill-rule="evenodd" clip-rule="evenodd" d="M226.688 54.7006C226.688 54.7006 223.179 66.2982 226.688 86.0143C226.688 86.0143 231.368 61.6592 227.858 54.7006" fill="#E6643B"/>
<path d="M381.036 182.286H287.804V214.715H381.036V182.286Z" fill="#F9F9F9"/>
<path d="M265 176.665C277.619 176.665 287.849 166.438 287.849 153.821C287.849 141.205 277.619 130.977 265 130.977C252.381 130.977 242.151 141.205 242.151 153.821C242.151 166.438 252.381 176.665 265 176.665Z" fill="#F9F9F9"/>
<path d="M278.062 186.529C285.75 184.613 290.429 176.827 288.513 169.141C286.596 161.454 278.81 156.777 271.122 158.694C263.434 160.611 258.755 168.396 260.671 176.082C262.588 183.769 270.374 188.446 278.062 186.529Z" fill="#ECECEC"/>
<path d="M295.847 185.38C305.529 182.966 311.421 173.163 309.008 163.483C306.594 153.804 296.789 147.914 287.108 150.328C277.426 152.742 271.535 162.545 273.948 172.225C276.361 181.904 286.166 187.794 295.847 185.38Z" fill="#ECECEC"/>
<path d="M314.149 184.102C320.982 182.398 325.142 175.478 323.438 168.646C321.734 161.813 314.813 157.656 307.979 159.36C301.145 161.064 296.986 167.984 298.69 174.816C300.394 181.649 307.315 185.806 314.149 184.102Z" fill="#ECECEC"/>
<path d="M328.845 177.153C335.679 175.449 339.838 168.529 338.134 161.696C336.431 154.864 329.51 150.706 322.676 152.41C315.842 154.114 311.683 161.034 313.386 167.867C315.09 174.699 322.011 178.857 328.845 177.153Z" fill="#ECECEC"/>
<path d="M278.576 188.591C286.264 186.674 290.943 178.889 289.026 171.203C287.11 163.516 279.324 158.839 271.636 160.756C263.947 162.673 259.268 170.458 261.185 178.144C263.101 185.831 270.888 190.508 278.576 188.591Z" fill="#F9F9F9"/>
<path d="M296.361 187.442C306.043 185.028 311.935 175.225 309.521 165.545C307.108 155.866 297.303 149.976 287.622 152.39C277.94 154.804 272.048 164.607 274.462 174.287C276.875 183.966 286.68 189.856 296.361 187.442Z" fill="#F9F9F9"/>
<path d="M314.662 186.164C321.496 184.46 325.655 177.54 323.952 170.708C322.248 163.875 315.327 159.718 308.493 161.422C301.659 163.126 297.5 170.046 299.204 176.878C300.907 183.711 307.828 187.868 314.662 186.164Z" fill="#F9F9F9"/>
<path d="M329.358 179.215C336.192 177.511 340.351 170.591 338.648 163.758C336.944 156.926 330.023 152.768 323.189 154.472C316.355 156.176 312.196 163.096 313.9 169.929C315.603 176.761 322.525 180.919 329.358 179.215Z" fill="#F9F9F9"/>
</g>
<defs>
<clipPath id="clip0_250_917">
<rect width="454" height="208.083" fill="white"/>
</clipPath>
</defs>
</svg>
